<svg width="56" height="56" viewBox="0 0 56 56" fill="none" xmlns="http://www.w3.org/2000/svg">
<path d="M32.5715 22.6286V19.8857C33.8286 19.3524 35.1143 18.9524 36.4286 18.6857C37.7429 18.4191 39.1238 18.2857 40.5715 18.2857C41.5619 18.2857 42.5334 18.3619 43.4857 18.5143C44.4381 18.6667 45.3715 18.8572 46.2857 19.0857V21.6C45.3715 21.2572 44.4477 21 43.5143 20.8286C42.581 20.6572 41.6 20.5714 40.5715 20.5714C39.1238 20.5714 37.7334 20.7524 36.4 21.1143C35.0667 21.4762 33.7905 21.981 32.5715 22.6286ZM32.5715 35.2V32.4C33.8286 31.8667 35.1143 31.4762 36.4286 31.2286C37.7429 30.981 39.1238 30.8572 40.5715 30.8572C41.5619 30.8572 42.5334 30.9333 43.4857 31.0857C44.4381 31.2381 45.3715 31.4286 46.2857 31.6572V34.1714C45.3715 33.8286 44.4477 33.5714 43.5143 33.4C42.581 33.2286 41.6 33.1429 40.5715 33.1429C39.1238 33.1429 37.7334 33.3143 36.4 33.6572C35.0667 34 33.7905 34.5143 32.5715 35.2ZM32.5715 28.9143V26.1714C33.8286 25.6381 35.1143 25.2381 36.4286 24.9714C37.7429 24.7048 39.1238 24.5714 40.5715 24.5714C41.5619 24.5714 42.5334 24.6476 43.4857 24.8C44.4381 24.9524 45.3715 25.1429 46.2857 25.3714V27.8857C45.3715 27.5429 44.4477 27.2857 43.5143 27.1143C42.581 26.9429 41.6 26.8572 40.5715 26.8572C39.1238 26.8572 37.7334 27.0381 36.4 27.4C35.0667 27.7619 33.7905 28.2667 32.5715 28.9143ZM14.7429 38.2857C16.8 38.2857 18.7905 38.5238 20.7143 39C22.6381 39.4762 24.5334 40.1905 26.4 41.1429V16.7429C24.6857 15.6 22.8286 14.7143 20.8286 14.0857C18.8286 13.4572 16.8 13.1429 14.7429 13.1429C13.2953 13.1429 11.8762 13.3238 10.4857 13.6857C9.09527 14.0476 7.69527 14.4952 6.28575 15.0286V39.8286C7.4667 39.2952 8.80956 38.9048 10.3143 38.6572C11.8191 38.4095 13.2953 38.2857 14.7429 38.2857ZM29.8286 41.1429C31.7334 40.1905 33.6 39.4762 35.4286 39C37.2572 38.5238 39.2 38.2857 41.2572 38.2857C42.7048 38.2857 44.2 38.4 45.7429 38.6286C47.2857 38.8572 48.6096 39.1619 49.7143 39.5429V15.0286C48.4191 14.381 47.0477 13.9048 45.6 13.6C44.1524 13.2952 42.7048 13.1429 41.2572 13.1429C39.2 13.1429 37.2096 13.4572 35.2857 14.0857C33.3619 14.7143 31.5429 15.6 29.8286 16.7429V41.1429ZM28.1143 46.2857C26.1715 44.8381 24.0572 43.7238 21.7715 42.9429C19.4857 42.1619 17.1429 41.7714 14.7429 41.7714C13.3334 41.7714 11.9619 41.9429 10.6286 42.2857C9.29527 42.6286 7.96194 43.0476 6.62861 43.5429C5.75242 43.9619 4.9048 43.9048 4.08575 43.3714C3.2667 42.8381 2.85718 42.0762 2.85718 41.0857V14.6286C2.85718 14.0572 2.99051 13.5333 3.25718 13.0572C3.52384 12.581 3.92384 12.2095 4.45718 11.9429C6.05718 11.181 7.72384 10.6191 9.45718 10.2572C11.1905 9.89525 12.9524 9.71429 14.7429 9.71429C17.1429 9.71429 19.4762 10.0381 21.7429 10.6857C24.0096 11.3333 26.1334 12.3238 28.1143 13.6572C30.0572 12.3238 32.1429 11.3333 34.3715 10.6857C36.6 10.0381 38.8953 9.71429 41.2572 9.71429C43.0476 9.71429 44.8 9.89525 46.5143 10.2572C48.2286 10.6191 49.8857 11.181 51.4857 11.9429C52.0191 12.2095 52.4286 12.581 52.7143 13.0572C53 13.5333 53.1429 14.0572 53.1429 14.6286V41.0857C53.1429 42.1524 52.7143 42.9619 51.8572 43.5143C51 44.0667 50.1524 44.0762 49.3143 43.5429C48.0191 43.0095 46.7048 42.581 45.3715 42.2572C44.0381 41.9333 42.6667 41.7714 41.2572 41.7714C38.8572 41.7714 36.5524 42.1714 34.3429 42.9714C32.1334 43.7714 30.0572 44.8762 28.1143 46.2857Z" fill="#03AC0E"/>
</svg>
