<svg width="24" height="25" viewBox="0 0 24 25" fill="none" xmlns="http://www.w3.org/2000/svg">
<path d="M15.675 17.7254L16.8 16.6004L12.825 12.6004V7.57539H11.325V13.2004L15.675 17.7254ZM12 22.9004C10.6333 22.9004 9.34167 22.6379 8.125 22.1129C6.90833 21.5879 5.84583 20.8712 4.9375 19.9629C4.02917 19.0546 3.3125 17.9921 2.7875 16.7754C2.2625 15.5587 2 14.2671 2 12.9004C2 11.5337 2.2625 10.2421 2.7875 9.02539C3.3125 7.80872 4.02917 6.74622 4.9375 5.83789C5.84583 4.92956 6.90833 4.21289 8.125 3.68789C9.34167 3.16289 10.6333 2.90039 12 2.90039C13.3667 2.90039 14.6583 3.16289 15.875 3.68789C17.0917 4.21289 18.1542 4.92956 19.0625 5.83789C19.9708 6.74622 20.6875 7.80872 21.2125 9.02539C21.7375 10.2421 22 11.5337 22 12.9004C22 14.2671 21.7375 15.5587 21.2125 16.7754C20.6875 17.9921 19.9708 19.0546 19.0625 19.9629C18.1542 20.8712 17.0917 21.5879 15.875 22.1129C14.6583 22.6379 13.3667 22.9004 12 22.9004ZM12 21.4004C14.3333 21.4004 16.3333 20.5671 18 18.9004C19.6667 17.2337 20.5 15.2337 20.5 12.9004C20.5 10.5671 19.6667 8.56706 18 6.90039C16.3333 5.23372 14.3333 4.40039 12 4.40039C9.66667 4.40039 7.66667 5.23372 6 6.90039C4.33333 8.56706 3.5 10.5671 3.5 12.9004C3.5 15.2337 4.33333 17.2337 6 18.9004C7.66667 20.5671 9.66667 21.4004 12 21.4004Z" fill="#0D0C22"/>
</svg>
