<svg width="56" height="56" viewBox="0 0 56 56" fill="none" xmlns="http://www.w3.org/2000/svg">
<path d="M29.6668 50.8572L29.0953 44.5715H26.8096C21.362 44.5715 16.7144 42.6476 12.8668 38.8C9.01915 34.9524 7.09534 30.3048 7.09534 24.8572C7.09534 19.4096 9.02867 14.7619 12.8953 10.9143C16.762 7.06669 21.4382 5.14288 26.9239 5.14288C29.6287 5.14288 32.1334 5.6286 34.4382 6.60003C36.743 7.57146 38.7525 8.93336 40.4668 10.6857C42.1811 12.4381 43.5239 14.5048 44.4953 16.8857C45.4668 19.2667 45.9525 21.8667 45.9525 24.6857C45.9525 27.2 45.5811 29.7143 44.8382 32.2286C44.0953 34.7429 43.0191 37.1429 41.6096 39.4286C40.2001 41.7143 38.4858 43.8286 36.4668 45.7715C34.4477 47.7143 32.1811 49.4096 29.6668 50.8572ZM32.5239 44.6857C35.6477 42.0572 38.0953 38.9619 39.8668 35.4C41.6382 31.8381 42.5239 28.2667 42.5239 24.6857C42.5239 19.9619 41.0477 16.0953 38.0953 13.0857C35.143 10.0762 31.4191 8.57146 26.9239 8.57146C22.3525 8.57146 18.4763 10.1619 15.2953 13.3429C12.1144 16.5238 10.5239 20.3619 10.5239 24.8572C10.5239 29.3524 12.1144 33.1905 15.2953 36.3715C18.4763 39.5524 22.3144 41.1429 26.8096 41.1429H32.5239V44.6857ZM26.9239 38.1143C27.5334 38.1143 28.0477 37.9048 28.4668 37.4857C28.8858 37.0667 29.0953 36.5524 29.0953 35.9429C29.0953 35.3334 28.8858 34.8191 28.4668 34.4C28.0477 33.981 27.5334 33.7715 26.9239 33.7715C26.3144 33.7715 25.8001 33.981 25.3811 34.4C24.962 34.8191 24.7525 35.3334 24.7525 35.9429C24.7525 36.5524 24.962 37.0667 25.3811 37.4857C25.8001 37.9048 26.3144 38.1143 26.9239 38.1143ZM25.3811 30.3429H28.2382C28.2382 29.3905 28.4001 28.6 28.7239 27.9715C29.0477 27.3429 29.7239 26.5143 30.7525 25.4857C31.7811 24.4572 32.5049 23.5143 32.9239 22.6572C33.343 21.8 33.5525 20.8762 33.5525 19.8857C33.5525 18.1715 32.9715 16.7619 31.8096 15.6572C30.6477 14.5524 29.0953 14 27.1525 14C25.5525 14 24.1239 14.4191 22.8668 15.2572C21.6096 16.0953 20.6763 17.2381 20.0668 18.6857L22.6953 19.7715C23.1144 18.781 23.6953 18.0476 24.4382 17.5715C25.1811 17.0953 26.0287 16.8572 26.9811 16.8572C28.1239 16.8572 29.0191 17.1334 29.6668 17.6857C30.3144 18.2381 30.6382 18.9715 30.6382 19.8857C30.6382 20.6096 30.4287 21.3429 30.0096 22.0857C29.5906 22.8286 28.8477 23.7524 27.7811 24.8572C26.7525 25.9238 26.0953 26.781 25.8096 27.4286C25.5239 28.0762 25.3811 29.0476 25.3811 30.3429Z" fill="#03AC0E"/>
</svg>
