<svg width="54" height="54" viewBox="0 0 54 54" fill="none" xmlns="http://www.w3.org/2000/svg">
<path d="M17.8875 40.7812H24.525V38.6437H20.025V36.0562H24.525V29.4187H17.8875V31.5562H22.3875V33.9187H17.8875V40.7812ZM33.975 40.7812H36.1125V29.4187H33.975V33.9187H31.6125V29.4187H29.475V36.0562H33.975V40.7812ZM47.25 24.8062V43.875C47.25 44.775 46.9125 45.5625 46.2375 46.2375C45.5625 46.9125 44.775 47.25 43.875 47.25H10.0687C9.16871 47.25 8.38121 46.9125 7.70621 46.2375C7.03121 45.5625 6.69371 44.775 6.69371 43.875V24.8062C5.64371 23.9062 4.94996 22.8 4.61246 21.4875C4.27496 20.175 4.31246 18.8625 4.72496 17.55L7.14371 9.95625C7.44371 8.94375 7.96871 8.15625 8.71871 7.59375C9.46871 7.03125 10.3312 6.75 11.3062 6.75H42.4125C43.4625 6.75 44.3812 7.04063 45.1687 7.62188C45.9562 8.20313 46.5 8.98125 46.8 9.95625L49.275 17.55C49.6875 18.8625 49.7156 20.175 49.3593 21.4875C49.0031 22.8 48.3 23.9062 47.25 24.8062ZM32.0625 23.0625C33.15 23.0625 34.0687 22.7062 34.8187 21.9937C35.5687 21.2812 35.8687 20.4187 35.7187 19.4062L34.3125 10.125H28.6875V19.4062C28.6875 20.3813 29.0062 21.2344 29.6437 21.9656C30.2812 22.6969 31.0875 23.0625 32.0625 23.0625ZM21.5437 23.0625C22.5937 23.0625 23.4843 22.7062 24.2156 21.9937C24.9468 21.2812 25.3125 20.4187 25.3125 19.4062V10.125H19.6875L18.2812 19.4062C18.1312 20.3813 18.3937 21.2344 19.0687 21.9656C19.7437 22.6969 20.5687 23.0625 21.5437 23.0625ZM11.3062 23.0625C12.2062 23.0625 12.9843 22.7531 13.6406 22.1344C14.2968 21.5156 14.6812 20.7562 14.7937 19.8562L16.2562 10.125H10.6312L8.04371 18.3375C7.66871 19.5 7.81871 20.5781 8.49371 21.5719C9.16871 22.5656 10.1062 23.0625 11.3062 23.0625ZM42.6375 23.0625C43.8375 23.0625 44.7843 22.575 45.4781 21.6C46.1718 20.625 46.3312 19.5375 45.9562 18.3375L43.3687 10.125H37.7437L39.2062 19.8562C39.3187 20.7562 39.7031 21.5156 40.3593 22.1344C41.0156 22.7531 41.775 23.0625 42.6375 23.0625ZM10.0687 43.875H43.875V26.3813C43.9125 26.4188 43.7906 26.4375 43.5093 26.4375H42.6375C41.7 26.4375 40.8093 26.2406 39.9656 25.8469C39.1218 25.4531 38.2875 24.8438 37.4625 24.0188C36.8625 24.7688 36.1125 25.3594 35.2125 25.7906C34.3125 26.2219 33.3187 26.4375 32.2312 26.4375C31.1062 26.4375 30.1406 26.2781 29.3343 25.9594C28.5281 25.6406 27.75 25.1062 27 24.3562C26.4375 25.0312 25.725 25.5469 24.8625 25.9031C24 26.2594 23.025 26.4375 21.9375 26.4375C20.775 26.4375 19.7437 26.2313 18.8437 25.8188C17.9437 25.4062 17.175 24.8062 16.5375 24.0188C15.6375 24.8062 14.7562 25.4062 13.8937 25.8188C13.0312 26.2313 12.1687 26.4375 11.3062 26.4375H10.5468C10.3031 26.4375 10.1437 26.4188 10.0687 26.3813V43.875Z" fill="#03AC0E"/>
</svg>
