<svg width="154" height="37" viewBox="0 0 154 37" fill="none" xmlns="http://www.w3.org/2000/svg">
<path fill-rule="evenodd" clip-rule="evenodd" d="M17.0711 4.81762C18.9464 5.72505 20 6.95579 20 8.2391H10L0 8.2391C0 6.95579 1.05357 5.72505 2.92893 4.81762C4.8043 3.91018 7.34784 3.40039 10 3.40039C12.6522 3.40039 15.1957 3.91018 17.0711 4.81762ZM2.92893 31.9832C1.05357 31.0757 0 29.845 0 28.5617H10L20 28.5617C20 29.845 18.9464 31.0757 17.0711 31.9832C15.1957 32.8906 12.6522 33.4004 10 33.4004C7.34783 33.4004 4.8043 32.8906 2.92893 31.9832ZM23 20.8197V24.6907H17V20.8197H23ZM6 12.1101H0V15.981H6V12.1101ZM11 12.1101H23V15.981H11V12.1101ZM12 20.8197H0V24.6907H12V20.8197Z" fill="#0062FF"/>
<path d="M41.054 29.688C39.7685 29.688 38.6179 29.3578 37.6023 28.6973C36.5866 28.0368 35.7841 27.0779 35.1946 25.8208C34.6051 24.5637 34.3104 23.0368 34.3104 21.2399C34.3104 19.4217 34.6087 17.8876 35.2053 16.6376C35.8089 15.3805 36.6222 14.4324 37.6449 13.7931C38.6676 13.1468 39.8075 12.8237 41.0646 12.8237C42.0234 12.8237 42.8118 12.987 43.4297 13.3137C44.0476 13.6333 44.5376 14.0204 44.8999 14.475C45.2621 14.9224 45.5426 15.345 45.7415 15.7427H45.9013V7.58221H49.7685V29.4004H45.9759V26.8223H45.7415C45.5426 27.22 45.255 27.6426 44.8786 28.09C44.5021 28.5304 44.005 28.9068 43.3871 29.2193C42.7692 29.5318 41.9915 29.688 41.054 29.688ZM42.13 26.524C42.9467 26.524 43.6428 26.3038 44.218 25.8635C44.7933 25.416 45.2301 24.7946 45.5284 23.9991C45.8267 23.2037 45.9759 22.2768 45.9759 21.2186C45.9759 20.1603 45.8267 19.2406 45.5284 18.4593C45.2372 17.6781 44.804 17.0708 44.2287 16.6376C43.6605 16.2044 42.9609 15.9877 42.13 15.9877C41.2706 15.9877 40.5533 16.2115 39.978 16.6589C39.4027 17.1064 38.9695 17.7243 38.6783 18.5126C38.3871 19.301 38.2415 20.2029 38.2415 21.2186C38.2415 22.2413 38.3871 23.1539 38.6783 23.9565C38.9766 24.752 39.4134 25.3805 39.9886 25.8422C40.571 26.2967 41.2848 26.524 42.13 26.524ZM61.1223 29.72C59.4817 29.72 58.0648 29.3791 56.8716 28.6973C55.6855 28.0083 54.7729 27.0353 54.1337 25.7782C53.4945 24.514 53.1749 23.0261 53.1749 21.3145C53.1749 19.6312 53.4945 18.1539 54.1337 16.8826C54.78 15.6042 55.682 14.6099 56.8397 13.8997C57.9973 13.1824 59.3574 12.8237 60.9199 12.8237C61.9284 12.8237 62.8801 12.987 63.775 13.3137C64.677 13.6333 65.4725 14.1305 66.1614 14.8052C66.8574 15.4799 67.4043 16.3393 67.802 17.3833C68.1998 18.4203 68.3986 19.6561 68.3986 21.0907V22.2733H54.986V19.6738H64.7019C64.6948 18.9352 64.535 18.2782 64.2225 17.7029C63.91 17.1206 63.4732 16.6625 62.9121 16.3287C62.3581 15.9949 61.7118 15.8279 60.9732 15.8279C60.1848 15.8279 59.4924 16.0197 58.8958 16.4032C58.2992 16.7797 57.834 17.2768 57.5002 17.8947C57.1735 18.5055 57.0066 19.1767 56.9995 19.9082V22.1774C56.9995 23.1291 57.1735 23.9458 57.5215 24.6277C57.8695 25.3024 58.356 25.8208 58.981 26.1831C59.606 26.5382 60.3375 26.7157 61.1756 26.7157C61.7367 26.7157 62.2445 26.6376 62.699 26.4814C63.1536 26.318 63.5478 26.0801 63.8816 25.7676C64.2154 25.4551 64.4675 25.068 64.638 24.6064L68.2388 25.0112C68.0115 25.9629 67.5783 26.7939 66.9391 27.5041C66.307 28.2072 65.4973 28.7541 64.5101 29.1447C63.5229 29.5282 62.3936 29.72 61.1223 29.72ZM84.5945 17.362L81.0788 17.7456C80.9794 17.3904 80.8054 17.0566 80.5568 16.7441C80.3153 16.4316 79.9886 16.1795 79.5767 15.9877C79.1648 15.796 78.6605 15.7001 78.0639 15.7001C77.2614 15.7001 76.5866 15.8741 76.0398 16.2221C75.5 16.5701 75.2337 17.0211 75.2408 17.5751C75.2337 18.051 75.4077 18.438 75.7628 18.7363C76.125 19.0346 76.7216 19.2797 77.5526 19.4714L80.3438 20.068C81.892 20.4018 83.0426 20.9309 83.7955 21.6554C84.5554 22.3798 84.9389 23.3279 84.946 24.4998C84.9389 25.5297 84.6371 26.4387 84.0405 27.2271C83.451 28.0083 82.6307 28.6191 81.5795 29.0595C80.5284 29.4998 79.321 29.72 77.9574 29.72C75.9545 29.72 74.3423 29.301 73.1207 28.4629C71.8991 27.6177 71.1712 26.4423 70.9368 24.9366L74.6974 24.5744C74.8679 25.313 75.2301 25.8706 75.7841 26.247C76.3381 26.6234 77.0589 26.8116 77.9467 26.8116C78.8629 26.8116 79.598 26.6234 80.152 26.247C80.7131 25.8706 80.9936 25.4054 80.9936 24.8514C80.9936 24.3826 80.8125 23.9956 80.4503 23.6902C80.0952 23.3848 79.5412 23.1504 78.7884 22.987L75.9972 22.4011C74.4276 22.0744 73.2663 21.524 72.5135 20.7498C71.7607 19.9686 71.3878 18.9814 71.3949 17.7882C71.3878 16.7797 71.6612 15.9061 72.2152 15.1674C72.7763 14.4217 73.554 13.8464 74.5483 13.4416C75.5497 13.0297 76.7038 12.8237 78.0107 12.8237C79.9283 12.8237 81.4375 13.2321 82.5384 14.0488C83.6463 14.8656 84.3317 15.97 84.5945 17.362ZM95.2638 29.72C93.6303 29.72 92.2276 29.3613 91.0558 28.644C89.891 27.9267 88.9925 26.9359 88.3604 25.6717C87.7354 24.4004 87.4229 22.9373 87.4229 21.2825C87.4229 19.6206 87.7425 18.1539 88.3817 16.8826C89.021 15.6042 89.9229 14.6099 91.0877 13.8997C92.2596 13.1824 93.6445 12.8237 95.2425 12.8237C96.5707 12.8237 97.7461 13.0687 98.7688 13.5588C99.7987 14.0417 100.619 14.7271 101.23 15.6149C101.841 16.4956 102.189 17.5254 102.274 18.7044H98.5877C98.4386 17.916 98.0835 17.2591 97.5224 16.7335C96.9684 16.2008 96.2262 15.9345 95.2958 15.9345C94.5075 15.9345 93.815 16.1475 93.2184 16.5737C92.6218 16.9927 92.1566 17.5964 91.8228 18.3848C91.4961 19.1731 91.3327 20.1177 91.3327 21.2186C91.3327 22.3336 91.4961 23.2924 91.8228 24.095C92.1495 24.8904 92.6076 25.5048 93.1971 25.938C93.7937 26.3642 94.4933 26.5772 95.2958 26.5772C95.864 26.5772 96.3718 26.4707 96.8192 26.2576C97.2738 26.0375 97.6538 25.7214 97.9592 25.3095C98.2646 24.8975 98.4741 24.3968 98.5877 23.8074H102.274C102.181 24.965 101.841 25.9913 101.251 26.8862C100.662 27.774 99.859 28.47 98.8434 28.9743C97.8278 29.4714 96.6346 29.72 95.2638 29.72ZM105.441 29.4004V13.0368H109.18V15.764H109.35C109.649 14.8194 110.16 14.0914 110.884 13.5801C111.616 13.0616 112.45 12.8024 113.388 12.8024C113.601 12.8024 113.839 12.813 114.102 12.8343C114.372 12.8485 114.595 12.8734 114.773 12.9089V16.4565C114.61 16.3997 114.35 16.35 113.995 16.3074C113.647 16.2576 113.31 16.2328 112.983 16.2328C112.28 16.2328 111.648 16.3855 111.087 16.6909C110.533 16.9892 110.096 17.4047 109.776 17.9373C109.457 18.47 109.297 19.0843 109.297 19.7804V29.4004H105.441ZM117.335 29.4004V13.0368H121.192V29.4004H117.335ZM119.274 10.7143C118.663 10.7143 118.138 10.5119 117.697 10.1071C117.257 9.69513 117.037 9.20153 117.037 8.62624C117.037 8.04386 117.257 7.55025 117.697 7.14542C118.138 6.73349 118.663 6.52752 119.274 6.52752C119.892 6.52752 120.417 6.73349 120.851 7.14542C121.291 7.55025 121.511 8.04386 121.511 8.62624C121.511 9.20153 121.291 9.69513 120.851 10.1071C120.417 10.5119 119.892 10.7143 119.274 10.7143ZM125.157 35.5368V13.0368H128.95V15.7427H129.174C129.373 15.345 129.653 14.9224 130.015 14.475C130.377 14.0204 130.868 13.6333 131.485 13.3137C132.103 12.987 132.892 12.8237 133.85 12.8237C135.115 12.8237 136.255 13.1468 137.27 13.7931C138.293 14.4324 139.103 15.3805 139.699 16.6376C140.303 17.8876 140.605 19.4217 140.605 21.2399C140.605 23.0368 140.31 24.5637 139.721 25.8208C139.131 27.0779 138.328 28.0368 137.313 28.6973C136.297 29.3578 135.147 29.688 133.861 29.688C132.924 29.688 132.146 29.5318 131.528 29.2193C130.91 28.9068 130.413 28.5304 130.037 28.09C129.667 27.6426 129.38 27.22 129.174 26.8223H129.014V35.5368H125.157ZM128.939 21.2186C128.939 22.2768 129.088 23.2037 129.387 23.9991C129.692 24.7946 130.129 25.416 130.697 25.8635C131.272 26.3038 131.968 26.524 132.785 26.524C133.637 26.524 134.351 26.2967 134.926 25.8422C135.502 25.3805 135.935 24.752 136.226 23.9565C136.525 23.1539 136.674 22.2413 136.674 21.2186C136.674 20.2029 136.528 19.301 136.237 18.5126C135.946 17.7243 135.512 17.1064 134.937 16.6589C134.362 16.2115 133.645 15.9877 132.785 15.9877C131.961 15.9877 131.262 16.2044 130.686 16.6376C130.111 17.0708 129.674 17.6781 129.376 18.4593C129.085 19.2406 128.939 20.1603 128.939 21.2186ZM152.078 13.0368V16.0197H142.672V13.0368H152.078ZM144.994 9.1163H148.85V24.4785C148.85 24.997 148.929 25.3947 149.085 25.6717C149.248 25.9416 149.461 26.1262 149.724 26.2257C149.987 26.3251 150.278 26.3748 150.598 26.3748C150.839 26.3748 151.059 26.3571 151.258 26.3216C151.464 26.286 151.62 26.2541 151.727 26.2257L152.377 29.2406C152.171 29.3116 151.876 29.3897 151.493 29.475C151.116 29.5602 150.654 29.6099 150.108 29.6241C149.142 29.6525 148.272 29.5069 147.498 29.1873C146.723 28.8606 146.109 28.3564 145.654 27.6745C145.207 26.9927 144.987 26.1404 144.994 25.1177V9.1163Z" fill="#000000"/>
</svg>
