<svg width="24" height="25" viewBox="0 0 24 25" fill="none" xmlns="http://www.w3.org/2000/svg">
<path d="M4.5 21.9004C4.1 21.9004 3.75 21.7504 3.45 21.4504C3.15 21.1504 3 20.8004 3 20.4004V5.40039C3 5.00039 3.15 4.65039 3.45 4.35039C3.75 4.05039 4.1 3.90039 4.5 3.90039H16.05L21 8.85039V20.4004C21 20.8004 20.85 21.1504 20.55 21.4504C20.25 21.7504 19.9 21.9004 19.5 21.9004H4.5ZM4.5 20.4004H19.5V9.67539H15.225V5.40039H4.5V20.4004ZM6.975 17.6254H17.025V16.1254H6.975V17.6254ZM6.975 9.67539H12V8.17539H6.975V9.67539ZM6.975 13.6504H17.025V12.1504H6.975V13.6504Z" fill="#0D0C22"/>
</svg>
