<svg width="32" height="32" viewBox="0 0 32 32" fill="none" xmlns="http://www.w3.org/2000/svg">
<path d="M30.8254 12.9224H16.3089V18.8889H24.6017C24.2441 20.8174 23.1593 22.4487 21.5241 23.5416C20.1419 24.4657 18.3781 25.0121 16.3049 25.0121C12.291 25.0121 8.89593 22.3 7.68253 18.6558C7.37718 17.7317 7.20039 16.7433 7.20039 15.7268C7.20039 14.7103 7.37718 13.7219 7.68253 12.7978C8.89994 9.15762 12.295 6.44557 16.3089 6.44557C18.5709 6.44557 20.5999 7.22504 22.1991 8.75182L26.6187 4.32816C23.9468 1.83709 20.4633 0.310303 16.3089 0.310303C10.2861 0.310303 5.07494 3.76566 2.53968 8.80405C1.49503 10.8853 0.900391 13.2398 0.900391 15.7308C0.900391 18.2219 1.49503 20.5724 2.53968 22.6536C5.07494 27.692 10.2861 31.1474 16.3089 31.1474C20.4714 31.1474 23.9589 29.7652 26.5062 27.4108C29.4191 24.7268 31.1026 20.7733 31.1026 16.0764C31.1026 14.9835 31.0062 13.9349 30.8254 12.9224Z" fill="white"/>
</svg>
