<svg width="196" height="37" viewBox="0 0 196 37" fill="none" xmlns="http://www.w3.org/2000/svg">
<circle cx="15" cy="18.4004" r="15" fill="#006C51"/>
<path d="M21 18.4004C21 22.2664 17.866 25.4004 14 25.4004C10.134 25.4004 7 22.2664 7 18.4004C7 14.5344 10.134 11.4004 14 11.4004C15.9587 11.4004 17.7295 12.2049 19 13.5014" stroke="white" stroke-width="2"/>
<path d="M17 20.4004L21 18.4004L23.5 21.9004" stroke="white" stroke-width="2"/>
<path d="M49.098 35.8777C47.7131 35.8777 46.5234 35.6895 45.5291 35.313C44.5348 34.9437 43.7358 34.4466 43.1321 33.8216C42.5284 33.1966 42.1094 32.5041 41.875 31.7441L45.348 30.9025C45.5043 31.2221 45.7315 31.5382 46.0298 31.8507C46.3281 32.1703 46.7294 32.4331 47.2337 32.639C47.745 32.8521 48.3878 32.9586 49.1619 32.9586C50.2557 32.9586 51.1612 32.6923 51.8786 32.1596C52.5959 31.6341 52.9545 30.7676 52.9545 29.5602V26.46H52.7628C52.5639 26.8578 52.2727 27.2662 51.8892 27.6852C51.5128 28.1042 51.0121 28.4558 50.3871 28.7399C49.7692 29.024 48.9915 29.166 48.054 29.166C46.7969 29.166 45.657 28.8713 44.6342 28.2818C43.6186 27.6852 42.8089 26.7974 42.2053 25.6184C41.6087 24.4324 41.3104 22.948 41.3104 21.1653C41.3104 19.3684 41.6087 17.8521 42.2053 16.6163C42.8089 15.3734 43.6222 14.4324 44.6449 13.7931C45.6676 13.1468 46.8075 12.8237 48.0646 12.8237C49.0234 12.8237 49.8118 12.987 50.4297 13.3137C51.0547 13.6333 51.5518 14.0204 51.9212 14.475C52.2905 14.9224 52.571 15.345 52.7628 15.7427H52.9759V13.0368H56.7791V29.6667C56.7791 31.0659 56.4453 32.2235 55.7777 33.1397C55.1101 34.0559 54.1974 34.7413 53.0398 35.1958C51.8821 35.6504 50.5682 35.8777 49.098 35.8777ZM49.13 26.1404C49.9467 26.1404 50.6428 25.9416 51.218 25.5439C51.7933 25.1461 52.2301 24.5744 52.5284 23.8287C52.8267 23.0829 52.9759 22.188 52.9759 21.144C52.9759 20.1142 52.8267 19.2122 52.5284 18.438C52.2372 17.6639 51.804 17.0637 51.2287 16.6376C50.6605 16.2044 49.9609 15.9877 49.13 15.9877C48.2706 15.9877 47.5533 16.2115 46.978 16.6589C46.4027 17.1064 45.9695 17.7207 45.6783 18.502C45.3871 19.2761 45.2415 20.1568 45.2415 21.144C45.2415 22.1454 45.3871 23.0225 45.6783 23.7754C45.9766 24.5211 46.4134 25.1035 46.9886 25.5225C47.571 25.9345 48.2848 26.1404 49.13 26.1404ZM60.7315 29.4004V13.0368H64.4709V15.764H64.6413C64.9396 14.8194 65.451 14.0914 66.1754 13.5801C66.907 13.0616 67.7415 12.8024 68.679 12.8024C68.892 12.8024 69.13 12.813 69.3928 12.8343C69.6626 12.8485 69.8864 12.8734 70.0639 12.9089V16.4565C69.9006 16.3997 69.6413 16.35 69.2862 16.3074C68.9382 16.2576 68.6009 16.2328 68.2741 16.2328C67.571 16.2328 66.9389 16.3855 66.3778 16.6909C65.8239 16.9892 65.3871 17.4047 65.0675 17.9373C64.7479 18.47 64.5881 19.0843 64.5881 19.7804V29.4004H60.7315ZM77.0419 29.7306C76.005 29.7306 75.071 29.546 74.2401 29.1767C73.4162 28.8002 72.7628 28.2463 72.2798 27.5147C71.804 26.7832 71.5661 25.8812 71.5661 24.8088C71.5661 23.8855 71.7365 23.122 72.0774 22.5183C72.4183 21.9146 72.8835 21.4316 73.473 21.0694C74.0625 20.7072 74.7266 20.4338 75.4652 20.2491C76.2109 20.0574 76.9815 19.9189 77.777 19.8336C78.7358 19.7342 79.5135 19.6454 80.1101 19.5673C80.7067 19.4821 81.1399 19.3542 81.4098 19.1838C81.6868 19.0062 81.8253 18.7328 81.8253 18.3635V18.2995C81.8253 17.497 81.5874 16.8755 81.1115 16.4352C80.6357 15.9949 79.9503 15.7747 79.0554 15.7747C78.1108 15.7747 77.3615 15.9806 76.8075 16.3926C76.2607 16.8045 75.8913 17.291 75.6996 17.8521L72.0987 17.3407C72.3828 16.3464 72.8516 15.5154 73.505 14.8478C74.1584 14.1731 74.9574 13.6689 75.902 13.335C76.8466 12.9941 77.8906 12.8237 79.0341 12.8237C79.8224 12.8237 80.6072 12.916 81.3885 13.1007C82.1697 13.2853 82.8835 13.5907 83.5298 14.0169C84.1761 14.4359 84.6946 15.0076 85.0852 15.7321C85.483 16.4565 85.6818 17.362 85.6818 18.4487V29.4004H81.9744V27.1525H81.8466C81.6122 27.6071 81.282 28.0332 80.8558 28.4309C80.4368 28.8216 79.9077 29.1376 79.2685 29.3791C78.6364 29.6135 77.8942 29.7306 77.0419 29.7306ZM78.0433 26.8968C78.8175 26.8968 79.4886 26.7441 80.0568 26.4387C80.625 26.1262 81.0618 25.7143 81.3672 25.2029C81.6797 24.6916 81.8359 24.1341 81.8359 23.5304V21.6021C81.7152 21.7015 81.5092 21.7939 81.218 21.8791C80.9339 21.9643 80.6143 22.0389 80.2592 22.1028C79.9041 22.1667 79.5526 22.2235 79.2045 22.2733C78.8565 22.323 78.5547 22.3656 78.299 22.4011C77.7237 22.4792 77.2088 22.6071 76.7543 22.7846C76.2997 22.9622 75.9411 23.2108 75.6783 23.5304C75.4155 23.8429 75.2841 24.2477 75.2841 24.7449C75.2841 25.4551 75.5433 25.9913 76.0618 26.3535C76.5803 26.7157 77.2408 26.8968 78.0433 26.8968ZM89.5597 29.4004V13.0368H93.2457V15.8173H93.4375C93.7784 14.8798 94.343 14.1483 95.1314 13.6227C95.9197 13.09 96.8608 12.8237 97.9545 12.8237C99.0625 12.8237 99.9964 13.0936 100.756 13.6333C101.523 14.166 102.063 14.894 102.376 15.8173H102.546C102.908 14.9082 103.519 14.1838 104.379 13.644C105.245 13.0971 106.271 12.8237 107.457 12.8237C108.963 12.8237 110.192 13.2995 111.143 14.2512C112.095 15.2029 112.571 16.5914 112.571 18.4167V29.4004H108.704V19.0133C108.704 17.9977 108.434 17.2555 107.894 16.7868C107.354 16.3109 106.694 16.073 105.913 16.073C104.982 16.073 104.254 16.3642 103.729 16.9466C103.21 17.5218 102.951 18.2711 102.951 19.1944V29.4004H99.169V18.8535C99.169 18.0083 98.9134 17.3336 98.402 16.8294C97.8977 16.3251 97.2372 16.073 96.4205 16.073C95.8665 16.073 95.3622 16.215 94.9077 16.4991C94.4531 16.7761 94.0909 17.1703 93.821 17.6816C93.5511 18.1859 93.4162 18.7754 93.4162 19.4501V29.4004H89.5597ZM116.483 29.4004V13.0368H120.17V15.8173H120.361C120.702 14.8798 121.267 14.1483 122.055 13.6227C122.844 13.09 123.785 12.8237 124.878 12.8237C125.986 12.8237 126.92 13.0936 127.68 13.6333C128.447 14.166 128.987 14.894 129.3 15.8173H129.47C129.832 14.9082 130.443 14.1838 131.302 13.644C132.169 13.0971 133.195 12.8237 134.381 12.8237C135.887 12.8237 137.116 13.2995 138.067 14.2512C139.019 15.2029 139.495 16.5914 139.495 18.4167V29.4004H135.628V19.0133C135.628 17.9977 135.358 17.2555 134.818 16.7868C134.278 16.3109 133.618 16.073 132.836 16.073C131.906 16.073 131.178 16.3642 130.653 16.9466C130.134 17.5218 129.875 18.2711 129.875 19.1944V29.4004H126.093V18.8535C126.093 18.0083 125.837 17.3336 125.326 16.8294C124.822 16.3251 124.161 16.073 123.344 16.073C122.79 16.073 122.286 16.215 121.831 16.4991C121.377 16.7761 121.015 17.1703 120.745 17.6816C120.475 18.1859 120.34 18.7754 120.34 19.4501V29.4004H116.483ZM148.116 29.7306C147.079 29.7306 146.145 29.546 145.314 29.1767C144.49 28.8002 143.837 28.2463 143.354 27.5147C142.878 26.7832 142.64 25.8812 142.64 24.8088C142.64 23.8855 142.811 23.122 143.152 22.5183C143.493 21.9146 143.958 21.4316 144.547 21.0694C145.137 20.7072 145.801 20.4338 146.539 20.2491C147.285 20.0574 148.056 19.9189 148.851 19.8336C149.81 19.7342 150.588 19.6454 151.184 19.5673C151.781 19.4821 152.214 19.3542 152.484 19.1838C152.761 19.0062 152.9 18.7328 152.9 18.3635V18.2995C152.9 17.497 152.662 16.8755 152.186 16.4352C151.71 15.9949 151.025 15.7747 150.13 15.7747C149.185 15.7747 148.436 15.9806 147.882 16.3926C147.335 16.8045 146.966 17.291 146.774 17.8521L143.173 17.3407C143.457 16.3464 143.926 15.5154 144.579 14.8478C145.233 14.1731 146.032 13.6689 146.976 13.335C147.921 12.9941 148.965 12.8237 150.108 12.8237C150.897 12.8237 151.681 12.916 152.463 13.1007C153.244 13.2853 153.958 13.5907 154.604 14.0169C155.25 14.4359 155.769 15.0076 156.159 15.7321C156.557 16.4565 156.756 17.362 156.756 18.4487V29.4004H153.049V27.1525H152.921C152.686 27.6071 152.356 28.0332 151.93 28.4309C151.511 28.8216 150.982 29.1376 150.343 29.3791C149.711 29.6135 148.968 29.7306 148.116 29.7306ZM149.118 26.8968C149.892 26.8968 150.563 26.7441 151.131 26.4387C151.699 26.1262 152.136 25.7143 152.441 25.2029C152.754 24.6916 152.91 24.1341 152.91 23.5304V21.6021C152.789 21.7015 152.583 21.7939 152.292 21.8791C152.008 21.9643 151.689 22.0389 151.333 22.1028C150.978 22.1667 150.627 22.2235 150.279 22.2733C149.931 22.323 149.629 22.3656 149.373 22.4011C148.798 22.4792 148.283 22.6071 147.828 22.7846C147.374 22.9622 147.015 23.2108 146.752 23.5304C146.49 23.8429 146.358 24.2477 146.358 24.7449C146.358 25.4551 146.618 25.9913 147.136 26.3535C147.654 26.7157 148.315 26.8968 149.118 26.8968ZM160.634 29.4004V13.0368H164.373V15.764H164.544C164.842 14.8194 165.353 14.0914 166.078 13.5801C166.809 13.0616 167.644 12.8024 168.581 12.8024C168.794 12.8024 169.032 12.813 169.295 12.8343C169.565 12.8485 169.789 12.8734 169.966 12.9089V16.4565C169.803 16.3997 169.544 16.35 169.189 16.3074C168.841 16.2576 168.503 16.2328 168.176 16.2328C167.473 16.2328 166.841 16.3855 166.28 16.6909C165.726 16.9892 165.289 17.4047 164.97 17.9373C164.65 18.47 164.49 19.0843 164.49 19.7804V29.4004H160.634ZM176.385 7.58221V29.4004H172.528V7.58221H176.385ZM182.748 35.5368C182.222 35.5368 181.736 35.4941 181.288 35.4089C180.848 35.3308 180.496 35.2385 180.233 35.1319L181.128 32.1277C181.689 32.291 182.19 32.3691 182.631 32.362C183.071 32.3549 183.458 32.2164 183.792 31.9466C184.133 31.6838 184.42 31.2434 184.655 30.6255L184.985 29.7413L179.051 13.0368H183.142L186.913 25.3947H187.084L190.866 13.0368H194.967L188.415 31.3819C188.11 32.2484 187.705 32.9906 187.201 33.6085C186.697 34.2335 186.079 34.7093 185.347 35.036C184.623 35.3699 183.756 35.5368 182.748 35.5368Z" fill="#000000"/>
</svg>
