<svg width="56" height="56" viewBox="0 0 56 56" fill="none" xmlns="http://www.w3.org/2000/svg">
<path d="M19.2477 46.2857C18.3334 46.2857 17.5334 45.9429 16.8477 45.2572C16.1619 44.5714 15.8191 43.7714 15.8191 42.8572V37.1429H22.9048V29.8857C21.4572 30 20.0096 29.8 18.5619 29.2857C17.1143 28.7714 15.8191 27.9619 14.6762 26.8572V23.5429H11.8191L4.33337 16.0572C5.7048 14.7619 7.3429 13.7048 9.24766 12.8857C11.1524 12.0667 13.0953 11.6572 15.0762 11.6572C16.2191 11.6572 17.5239 11.8381 18.9905 12.2C20.4572 12.5619 21.7619 13.1429 22.9048 13.9429V9.71429H48.9048V40.2857C48.9048 41.9619 48.3238 43.381 47.1619 44.5429C46 45.7048 44.581 46.2857 42.9048 46.2857H19.2477ZM26.3334 37.1429H40.3334V40.2857C40.3334 41.0476 40.5715 41.6667 41.0477 42.1429C41.5239 42.6191 42.1429 42.8572 42.9048 42.8572C43.6667 42.8572 44.2858 42.6191 44.7619 42.1429C45.2381 41.6667 45.4762 41.0476 45.4762 40.2857V13.1429H26.3334V16.4L40.1048 30.1714V32.6286H37.6477L30.4477 25.4286L29.4762 26.5714C28.981 27.1429 28.4858 27.581 27.9905 27.8857C27.4953 28.1905 26.9429 28.4762 26.3334 28.7429V37.1429ZM13.3619 20.1143H18.1048V25.2C18.7524 25.6191 19.3905 25.9333 20.0191 26.1429C20.6477 26.3524 21.2858 26.4572 21.9334 26.4572C22.8858 26.4572 23.8572 26.2 24.8477 25.6857C25.8381 25.1714 26.5619 24.6476 27.0191 24.1143L27.9905 22.9714L24.0477 19.0286C22.8286 17.8095 21.4572 16.8476 19.9334 16.1429C18.4096 15.4381 16.7905 15.0857 15.0762 15.0857C14.0477 15.0857 13.1143 15.2095 12.2762 15.4572C11.4381 15.7048 10.581 16.0381 9.7048 16.4572L13.3619 20.1143ZM36.9048 40.5714H19.2477V42.8572H37.7048C37.4762 42.6286 37.2858 42.3143 37.1334 41.9143C36.981 41.5143 36.9048 41.0667 36.9048 40.5714Z" fill="#03AC0E"/>
</svg>
