<svg width="36" height="37" viewBox="0 0 36 37" fill="none" xmlns="http://www.w3.org/2000/svg">
<path d="M17.9989 10.4713C13.4387 10.4713 9.75831 14.1517 9.75831 18.7119C9.75831 23.2722 13.4387 26.9526 17.9989 26.9526C22.5592 26.9526 26.2396 23.2722 26.2396 18.7119C26.2396 14.1517 22.5592 10.4713 17.9989 10.4713ZM17.9989 24.0677C15.0498 24.0677 12.6431 21.661 12.6431 18.7119C12.6431 15.7628 15.0498 13.3561 17.9989 13.3561C20.948 13.3561 23.3547 15.7628 23.3547 18.7119C23.3547 21.661 20.948 24.0677 17.9989 24.0677ZM26.5771 8.21328C25.5123 8.21328 24.6525 9.0731 24.6525 10.1378C24.6525 11.2026 25.5123 12.0624 26.5771 12.0624C27.6418 12.0624 28.5016 11.2066 28.5016 10.1378C28.5019 9.885 28.4524 9.6346 28.3558 9.40096C28.2592 9.16732 28.1174 8.95503 27.9386 8.77626C27.7599 8.59748 27.5476 8.45573 27.3139 8.35913C27.0803 8.26252 26.8299 8.21296 26.5771 8.21328ZM34.0623 18.7119C34.0623 16.4941 34.0824 14.2963 33.9579 12.0825C33.8333 9.51104 33.2467 7.2289 31.3664 5.34854C29.482 3.46417 27.2038 2.88158 24.6324 2.75703C22.4146 2.63247 20.2168 2.65256 18.003 2.65256C15.7851 2.65256 13.5873 2.63247 11.3735 2.75703C8.80206 2.88158 6.51992 3.46819 4.63956 5.34854C2.75519 7.23292 2.1726 9.51104 2.04804 12.0825C1.92349 14.3003 1.94358 16.4981 1.94358 18.7119C1.94358 20.9258 1.92349 23.1276 2.04804 25.3414C2.1726 27.9128 2.7592 30.195 4.63956 32.0753C6.52394 33.9597 8.80206 34.5423 11.3735 34.6668C13.5913 34.7914 15.7891 34.7713 18.003 34.7713C20.2208 34.7713 22.4186 34.7914 24.6324 34.6668C27.2038 34.5423 29.486 33.9557 31.3664 32.0753C33.2507 30.191 33.8333 27.9128 33.9579 25.3414C34.0864 23.1276 34.0623 20.9298 34.0623 18.7119ZM30.5266 28.186C30.2333 28.9173 29.8797 29.4637 29.3132 30.0262C28.7467 30.5927 28.2043 30.9463 27.473 31.2396C25.3597 32.0793 20.3413 31.8905 17.9989 31.8905C15.6565 31.8905 10.6342 32.0793 8.52081 31.2436C7.78956 30.9503 7.24313 30.5968 6.68063 30.0302C6.11411 29.4637 5.76054 28.9213 5.46724 28.1901C4.63153 26.0727 4.82036 21.0543 4.82036 18.7119C4.82036 16.3695 4.63153 11.3472 5.46724 9.23381C5.76054 8.50256 6.11411 7.95613 6.68063 7.39363C7.24715 6.83113 7.78956 6.47354 8.52081 6.18024C10.6342 5.34453 15.6565 5.53337 17.9989 5.53337C20.3413 5.53337 25.3637 5.34453 27.4771 6.18024C28.2083 6.47354 28.7547 6.82712 29.3172 7.39363C29.8838 7.96015 30.2373 8.50256 30.5306 9.23381C31.3664 11.3472 31.1775 16.3695 31.1775 18.7119C31.1775 21.0543 31.3664 26.0727 30.5266 28.186Z" fill="white"/>
</svg>
