<svg width="201" height="37" viewBox="0 0 201 37" fill="none" xmlns="http://www.w3.org/2000/svg">
<path d="M46.1044 7.58221V29.4004H42.152V7.58221H46.1044ZM68.3141 7.58221V29.4004H64.7985L54.5179 14.5389H54.3368V29.4004H50.3844V7.58221H53.9213L64.1912 22.4544H64.383V7.58221H68.3141ZM71.6619 10.8954V7.58221H89.0696V10.8954H82.326V29.4004H78.4055V10.8954H71.6619ZM92.4254 29.4004V7.58221H106.616V10.8954H96.3778V16.8187H105.881V20.1319H96.3778V26.0872H106.701V29.4004H92.4254ZM110.648 29.4004V7.58221H118.83C120.506 7.58221 121.912 7.8734 123.049 8.45579C124.192 9.03817 125.055 9.85494 125.637 10.9061C126.227 11.9501 126.522 13.1681 126.522 14.5602C126.522 15.9593 126.223 17.1738 125.627 18.2037C125.037 19.2264 124.167 20.0183 123.017 20.5794C121.866 21.1333 120.453 21.4103 118.777 21.4103H112.949V18.1291H118.244C119.224 18.1291 120.027 17.9941 120.652 17.7243C121.277 17.4473 121.738 17.046 122.037 16.5204C122.342 15.9877 122.495 15.3343 122.495 14.5602C122.495 13.786 122.342 13.1255 122.037 12.5787C121.731 12.0247 121.266 11.6056 120.641 11.3216C120.016 11.0304 119.21 10.8848 118.223 10.8848H114.6V29.4004H110.648ZM121.919 19.514L127.321 29.4004H122.91L117.605 19.514H121.919ZM148.835 14.9437H144.851C144.737 14.2903 144.528 13.7115 144.222 13.2072C143.917 12.6958 143.537 12.2626 143.082 11.9075C142.628 11.5524 142.109 11.286 141.527 11.1085C140.952 10.9238 140.33 10.8315 139.663 10.8315C138.477 10.8315 137.425 11.1298 136.509 11.7264C135.593 12.3159 134.876 13.1824 134.357 14.3258C133.839 15.4622 133.58 16.8507 133.58 18.4913C133.58 20.1603 133.839 21.5666 134.357 22.71C134.883 23.8464 135.6 24.7058 136.509 25.2882C137.425 25.8635 138.473 26.1511 139.652 26.1511C140.305 26.1511 140.916 26.0659 141.484 25.8954C142.06 25.7179 142.575 25.4586 143.029 25.1177C143.491 24.7768 143.878 24.3578 144.19 23.8606C144.51 23.3635 144.73 22.7953 144.851 22.1561L148.835 22.1774C148.686 23.2143 148.363 24.1873 147.866 25.0964C147.376 26.0055 146.733 26.8081 145.938 27.5041C145.142 28.193 144.212 28.7328 143.146 29.1234C142.081 29.5069 140.898 29.6987 139.599 29.6987C137.681 29.6987 135.969 29.2548 134.464 28.367C132.958 27.4792 131.772 26.1973 130.906 24.5211C130.039 22.845 129.606 20.835 129.606 18.4913C129.606 16.1404 130.043 14.1305 130.916 12.4615C131.79 10.7853 132.979 9.50337 134.485 8.61559C135.991 7.7278 137.695 7.28391 139.599 7.28391C140.813 7.28391 141.942 7.45437 142.987 7.79528C144.031 8.13619 144.961 8.6369 145.778 9.29741C146.594 9.95082 147.266 10.7534 147.791 11.7051C148.324 12.6497 148.672 13.7292 148.835 14.9437ZM171.95 18.4913C171.95 20.8422 171.51 22.8556 170.629 24.5318C169.756 26.2008 168.563 27.4792 167.05 28.367C165.544 29.2548 163.836 29.6987 161.926 29.6987C160.015 29.6987 158.303 29.2548 156.791 28.367C155.285 27.4721 154.092 26.1902 153.211 24.5211C152.338 22.845 151.901 20.835 151.901 18.4913C151.901 16.1404 152.338 14.1305 153.211 12.4615C154.092 10.7853 155.285 9.50337 156.791 8.61559C158.303 7.7278 160.015 7.28391 161.926 7.28391C163.836 7.28391 165.544 7.7278 167.05 8.61559C168.563 9.50337 169.756 10.7853 170.629 12.4615C171.51 14.1305 171.95 16.1404 171.95 18.4913ZM167.977 18.4913C167.977 16.8365 167.718 15.4409 167.199 14.3045C166.688 13.161 165.977 12.2981 165.068 11.7157C164.159 11.1262 163.112 10.8315 161.926 10.8315C160.74 10.8315 159.692 11.1262 158.783 11.7157C157.874 12.2981 157.16 13.161 156.642 14.3045C156.13 15.4409 155.874 16.8365 155.874 18.4913C155.874 20.1461 156.13 21.5453 156.642 22.6887C157.16 23.8251 157.874 24.688 158.783 25.2775C159.692 25.8599 160.74 26.1511 161.926 26.1511C163.112 26.1511 164.159 25.8599 165.068 25.2775C165.977 24.688 166.688 23.8251 167.199 22.6887C167.718 21.5453 167.977 20.1461 167.977 18.4913ZM175.687 7.58221H180.524L187.001 23.3919H187.257L193.734 7.58221H198.571V29.4004H194.778V14.411H194.576L188.546 29.3365H185.712L179.682 14.3791H179.48V29.4004H175.687V7.58221Z" fill="#000000"/>
<rect y="3.40039" width="30" height="30" rx="3" fill="#000000"/>
<rect x="4" y="10.4004" width="2" height="12" fill="white"/>
<rect x="9" y="7.40039" width="2" height="18" fill="white"/>
<rect x="14" y="7.40039" width="2" height="18" fill="white"/>
<rect x="19" y="7.40039" width="2" height="18" fill="white"/>
<path d="M5 27.4004C7.83333 29.6643 16 32.8337 26 27.4004" stroke="white" stroke-width="2" stroke-linecap="round"/>
<rect x="24" y="10.4004" width="2" height="12" fill="white"/>
</svg>
