<svg width="36" height="37" viewBox="0 0 36 37" fill="none" xmlns="http://www.w3.org/2000/svg">
<path d="M31.4886 2.64233H4.51268C3.08634 2.64233 1.9292 3.79948 1.9292 5.22582V32.2017C1.9292 33.6281 3.08634 34.7852 4.51268 34.7852H31.4886C32.9149 34.7852 34.0721 33.6281 34.0721 32.2017V5.22582C34.0721 3.79948 32.9149 2.64233 31.4886 2.64233ZM31.4886 32.2138C13.4966 32.2097 4.50063 32.2057 4.50063 32.2017C4.50465 14.2097 4.50866 5.21376 4.51268 5.21376C22.5046 5.21778 31.5006 5.2218 31.5006 5.22582C31.4966 23.2178 31.4926 32.2138 31.4886 32.2138ZM6.69438 14.6919H11.4636V30.0321H6.69438V14.6919ZM9.08099 12.5946C10.6038 12.5946 11.8453 11.3571 11.8453 9.83028C11.8453 9.46727 11.7738 9.10781 11.6349 8.77243C11.4959 8.43706 11.2923 8.13232 11.0356 7.87564C10.7789 7.61895 10.4742 7.41533 10.1388 7.27641C9.80345 7.1375 9.444 7.066 9.08099 7.066C8.71797 7.066 8.35852 7.1375 8.02314 7.27641C7.68776 7.41533 7.38303 7.61895 7.12634 7.87564C6.86965 8.13232 6.66604 8.43706 6.52712 8.77243C6.3882 9.10781 6.3167 9.46727 6.3167 9.83028C6.31268 11.3571 7.55018 12.5946 9.08099 12.5946ZM19.218 22.4423C19.218 20.4414 19.5997 18.5048 22.0788 18.5048C24.5216 18.5048 24.5578 20.791 24.5578 22.5709V30.0321H29.323V21.6187C29.323 17.4883 28.431 14.3102 23.6055 14.3102C21.2872 14.3102 19.7323 15.5839 19.0935 16.7892H19.0292V14.6919H14.4529V30.0321H19.218V22.4423Z" fill="white"/>
</svg>
