<svg width="145" height="37" viewBox="0 0 145 37" fill="none" xmlns="http://www.w3.org/2000/svg">
<path d="M68.0817 7.58221V29.4004H64.5661L54.2855 14.5389H54.1044V29.4004H50.152V7.58221H53.6889L63.9588 22.4544H64.1506V7.58221H68.0817ZM79.3556 29.72C77.7576 29.72 76.3727 29.3684 75.2008 28.6653C74.0289 27.9622 73.1199 26.9785 72.4735 25.7143C71.8343 24.4501 71.5147 22.9728 71.5147 21.2825C71.5147 19.5922 71.8343 18.1113 72.4735 16.84C73.1199 15.5687 74.0289 14.5815 75.2008 13.8784C76.3727 13.1752 77.7576 12.8237 79.3556 12.8237C80.9537 12.8237 82.3386 13.1752 83.5105 13.8784C84.6824 14.5815 85.5879 15.5687 86.2271 16.84C86.8734 18.1113 87.1966 19.5922 87.1966 21.2825C87.1966 22.9728 86.8734 24.4501 86.2271 25.7143C85.5879 26.9785 84.6824 27.9622 83.5105 28.6653C82.3386 29.3684 80.9537 29.72 79.3556 29.72ZM79.377 26.6305C80.2434 26.6305 80.9679 26.3926 81.5502 25.9167C82.1326 25.4338 82.5659 24.7875 82.85 23.9778C83.1412 23.1681 83.2868 22.2662 83.2868 21.2718C83.2868 20.2704 83.1412 19.3649 82.85 18.5552C82.5659 17.7385 82.1326 17.0886 81.5502 16.6056C80.9679 16.1227 80.2434 15.8812 79.377 15.8812C78.4892 15.8812 77.7505 16.1227 77.161 16.6056C76.5787 17.0886 76.1419 17.7385 75.8507 18.5552C75.5666 19.3649 75.4245 20.2704 75.4245 21.2718C75.4245 22.2662 75.5666 23.1681 75.8507 23.9778C76.1419 24.7875 76.5787 25.4338 77.161 25.9167C77.7505 26.3926 78.4892 26.6305 79.377 26.6305ZM98.641 13.0368V16.0197H89.234V13.0368H98.641ZM91.5565 9.1163H95.413V24.4785C95.413 24.997 95.4911 25.3947 95.6474 25.6717C95.8107 25.9416 96.0238 26.1262 96.2866 26.2257C96.5494 26.3251 96.8406 26.3748 97.1602 26.3748C97.4016 26.3748 97.6218 26.3571 97.8207 26.3216C98.0266 26.286 98.1829 26.2541 98.2894 26.2257L98.9393 29.2406C98.7333 29.3116 98.4386 29.3897 98.055 29.475C97.6786 29.5602 97.217 29.6099 96.6701 29.6241C95.7042 29.6525 94.8342 29.5069 94.06 29.1873C93.2859 28.8606 92.6715 28.3564 92.217 27.6745C91.7695 26.9927 91.5494 26.1404 91.5565 25.1177V9.1163ZM101.866 29.4004V13.0368H105.723V29.4004H101.866ZM103.805 10.7143C103.194 10.7143 102.669 10.5119 102.229 10.1071C101.788 9.69513 101.568 9.20153 101.568 8.62624C101.568 8.04386 101.788 7.55025 102.229 7.14542C102.669 6.73349 103.194 6.52752 103.805 6.52752C104.423 6.52752 104.949 6.73349 105.382 7.14542C105.822 7.55025 106.042 8.04386 106.042 8.62624C106.042 9.20153 105.822 9.69513 105.382 10.1071C104.949 10.5119 104.423 10.7143 103.805 10.7143ZM116.826 29.72C115.228 29.72 113.843 29.3684 112.672 28.6653C111.5 27.9622 110.591 26.9785 109.944 25.7143C109.305 24.4501 108.985 22.9728 108.985 21.2825C108.985 19.5922 109.305 18.1113 109.944 16.84C110.591 15.5687 111.5 14.5815 112.672 13.8784C113.843 13.1752 115.228 12.8237 116.826 12.8237C118.424 12.8237 119.809 13.1752 120.981 13.8784C122.153 14.5815 123.059 15.5687 123.698 16.84C124.344 18.1113 124.667 19.5922 124.667 21.2825C124.667 22.9728 124.344 24.4501 123.698 25.7143C123.059 26.9785 122.153 27.9622 120.981 28.6653C119.809 29.3684 118.424 29.72 116.826 29.72ZM116.848 26.6305C117.714 26.6305 118.439 26.3926 119.021 25.9167C119.603 25.4338 120.037 24.7875 120.321 23.9778C120.612 23.1681 120.757 22.2662 120.757 21.2718C120.757 20.2704 120.612 19.3649 120.321 18.5552C120.037 17.7385 119.603 17.0886 119.021 16.6056C118.439 16.1227 117.714 15.8812 116.848 15.8812C115.96 15.8812 115.221 16.1227 114.632 16.6056C114.049 17.0886 113.613 17.7385 113.321 18.5552C113.037 19.3649 112.895 20.2704 112.895 21.2718C112.895 22.2662 113.037 23.1681 113.321 23.9778C113.613 24.7875 114.049 25.4338 114.632 25.9167C115.221 26.3926 115.96 26.6305 116.848 26.6305ZM131.797 19.8123V29.4004H127.941V13.0368H131.627V15.8173H131.818C132.195 14.9011 132.795 14.1731 133.619 13.6333C134.45 13.0936 135.476 12.8237 136.698 12.8237C137.827 12.8237 138.811 13.0652 139.649 13.5481C140.494 14.0311 141.147 14.7306 141.609 15.6468C142.078 16.563 142.308 17.6745 142.301 18.9814V29.4004H138.445V19.5779C138.445 18.4842 138.161 17.6284 137.593 17.0105C137.031 16.3926 136.254 16.0836 135.259 16.0836C134.585 16.0836 133.985 16.2328 133.459 16.5311C132.941 16.8223 132.532 17.2449 132.234 17.7988C131.943 18.3528 131.797 19.024 131.797 19.8123Z" fill="#000000"/>
<path d="M28.3878 14.8549V29.4004H26.044L19.1903 19.4927H19.0696V29.4004H16.4347V14.8549H18.7926L25.6392 24.7697H25.767V14.8549H28.3878Z" fill="#000000"/>
<rect x="9" y="9.40039" width="28" height="26" stroke="#000000" stroke-width="2"/>
<path d="M2.66145 2.40039L8.37574 7.40039H35.3386L29.6243 2.40039H2.66145Z" stroke="#000000" stroke-width="2"/>
<path d="M8 8.40039L0 1.40039V29.4004L8 36.4004V8.40039Z" fill="#000000"/>
</svg>
