<svg width="54" height="54" viewBox="0 0 54 54" fill="none" xmlns="http://www.w3.org/2000/svg">
<path d="M41.0625 28.6875V25.3125H49.5V28.6875H41.0625ZM43.875 45L37.0688 39.9375L39.0938 37.2375L45.9 42.3L43.875 45ZM39.2625 16.7063L37.2375 14.0062L43.875 9L45.9 11.7L39.2625 16.7063ZM11.8125 42.75V33.75H7.875C6.9375 33.75 6.14062 33.4219 5.48438 32.7656C4.82813 32.1094 4.5 31.3125 4.5 30.375V23.625C4.5 22.6875 4.82813 21.8906 5.48438 21.2344C6.14062 20.5781 6.9375 20.25 7.875 20.25H18L29.25 13.5V40.5L18 33.75H15.1875V42.75H11.8125ZM31.5 34.5375V19.4625C32.5125 20.3625 33.3281 21.4594 33.9469 22.7531C34.5656 24.0469 34.875 25.4625 34.875 27C34.875 28.5375 34.5656 29.9531 33.9469 31.2469C33.3281 32.5406 32.5125 33.6375 31.5 34.5375ZM7.875 23.625V30.375H18.9L25.875 34.5375V19.4625L18.9 23.625H7.875Z" fill="#03AC0E"/>
</svg>
