<svg width="54" height="54" viewBox="0 0 54 54" fill="none" xmlns="http://www.w3.org/2000/svg">
<path d="M22.5562 50.625L20.1375 48.2062L23.3438 45H11.25V41.625H23.4563L20.1375 38.3062L22.5562 35.8875L29.925 43.2563L22.5562 50.625ZM11.25 38.7V7.875C11.25 6.975 11.5875 6.1875 12.2625 5.5125C12.9375 4.8375 13.725 4.5 14.625 4.5H39.375C40.275 4.5 41.0625 4.8375 41.7375 5.5125C42.4125 6.1875 42.75 6.975 42.75 7.875V38.7H39.375V34.1438C37.725 33.1688 35.8969 32.4281 33.8906 31.9219C31.8844 31.4156 29.5875 31.1625 27 31.1625C24.4125 31.1625 22.125 31.4156 20.1375 31.9219C18.15 32.4281 16.3125 33.1688 14.625 34.1438V38.7H11.25ZM14.625 30.2625C16.575 29.4 18.5906 28.7531 20.6719 28.3219C22.7531 27.8906 24.8625 27.675 27 27.675C29.1375 27.675 31.2375 27.8906 33.3 28.3219C35.3625 28.7531 37.3875 29.4 39.375 30.2625V7.875H14.625V30.2625ZM31.5 45V41.625H42.75V45H31.5ZM27 24.4125C25.2375 24.4125 23.7469 23.8031 22.5281 22.5844C21.3094 21.3656 20.7 19.875 20.7 18.1125C20.7 16.35 21.3094 14.8594 22.5281 13.6406C23.7469 12.4219 25.2375 11.8125 27 11.8125C28.7625 11.8125 30.2531 12.4219 31.4719 13.6406C32.6906 14.8594 33.3 16.35 33.3 18.1125C33.3 19.875 32.6906 21.3656 31.4719 22.5844C30.2531 23.8031 28.7625 24.4125 27 24.4125ZM27 21.0375C27.825 21.0375 28.5188 20.7563 29.0813 20.1938C29.6438 19.6313 29.925 18.9375 29.925 18.1125C29.925 17.2875 29.6438 16.5938 29.0813 16.0312C28.5188 15.4688 27.825 15.1875 27 15.1875C26.175 15.1875 25.4812 15.4688 24.9187 16.0312C24.3562 16.5938 24.075 17.2875 24.075 18.1125C24.075 18.9375 24.3562 19.6313 24.9187 20.1938C25.4812 20.7563 26.175 21.0375 27 21.0375Z" fill="#03AC0E"/>
</svg>
