<svg width="52" height="38" viewBox="0 0 52 38" fill="none" xmlns="http://www.w3.org/2000/svg">
<path d="M30.5715 13.6286V10.8857C31.8286 10.3524 33.1143 9.95239 34.4286 9.68572C35.7429 9.41906 37.1238 9.28572 38.5715 9.28572C39.5619 9.28572 40.5334 9.36191 41.4857 9.51429C42.4381 9.66668 43.3715 9.85715 44.2857 10.0857V12.6C43.3715 12.2572 42.4477 12 41.5143 11.8286C40.581 11.6572 39.6 11.5714 38.5715 11.5714C37.1238 11.5714 35.7334 11.7524 34.4 12.1143C33.0667 12.4762 31.7905 12.981 30.5715 13.6286ZM30.5715 26.2V23.4C31.8286 22.8667 33.1143 22.4762 34.4286 22.2286C35.7429 21.981 37.1238 21.8572 38.5715 21.8572C39.5619 21.8572 40.5334 21.9333 41.4857 22.0857C42.4381 22.2381 43.3715 22.4286 44.2857 22.6572V25.1714C43.3715 24.8286 42.4477 24.5714 41.5143 24.4C40.581 24.2286 39.6 24.1429 38.5715 24.1429C37.1238 24.1429 35.7334 24.3143 34.4 24.6572C33.0667 25 31.7905 25.5143 30.5715 26.2ZM30.5715 19.9143V17.1714C31.8286 16.6381 33.1143 16.2381 34.4286 15.9714C35.7429 15.7048 37.1238 15.5714 38.5715 15.5714C39.5619 15.5714 40.5334 15.6476 41.4857 15.8C42.4381 15.9524 43.3715 16.1429 44.2857 16.3714V18.8857C43.3715 18.5429 42.4477 18.2857 41.5143 18.1143C40.581 17.9429 39.6 17.8572 38.5715 17.8572C37.1238 17.8572 35.7334 18.0381 34.4 18.4C33.0667 18.7619 31.7905 19.2667 30.5715 19.9143ZM12.7429 29.2857C14.8 29.2857 16.7905 29.5238 18.7143 30C20.6381 30.4762 22.5334 31.1905 24.4 32.1429V7.74287C22.6857 6.60001 20.8286 5.71429 18.8286 5.08572C16.8286 4.45715 14.8 4.14287 12.7429 4.14287C11.2953 4.14287 9.87623 4.32382 8.48575 4.68572C7.09527 5.04763 5.69527 5.49525 4.28575 6.02858V30.8286C5.4667 30.2952 6.80956 29.9048 8.31432 29.6572C9.81908 29.4095 11.2953 29.2857 12.7429 29.2857ZM27.8286 32.1429C29.7334 31.1905 31.6 30.4762 33.4286 30C35.2572 29.5238 37.2 29.2857 39.2572 29.2857C40.7048 29.2857 42.2 29.4 43.7429 29.6286C45.2857 29.8572 46.6096 30.1619 47.7143 30.5429V6.02858C46.4191 5.38096 45.0477 4.90477 43.6 4.60001C42.1524 4.29525 40.7048 4.14287 39.2572 4.14287C37.2 4.14287 35.2096 4.45715 33.2857 5.08572C31.3619 5.71429 29.5429 6.60001 27.8286 7.74287V32.1429ZM26.1143 37.2857C24.1715 35.8381 22.0572 34.7238 19.7715 33.9429C17.4857 33.1619 15.1429 32.7714 12.7429 32.7714C11.3334 32.7714 9.96194 32.9429 8.62861 33.2857C7.29527 33.6286 5.96194 34.0476 4.62861 34.5429C3.75242 34.9619 2.9048 34.9048 2.08575 34.3714C1.2667 33.8381 0.857178 33.0762 0.857178 32.0857V5.62858C0.857178 5.05715 0.990511 4.53334 1.25718 4.05715C1.52384 3.58096 1.92384 3.20953 2.45718 2.94287C4.05718 2.18096 5.72384 1.61906 7.45718 1.25715C9.19051 0.895247 10.9524 0.714294 12.7429 0.714294C15.1429 0.714294 17.4762 1.0381 19.7429 1.68572C22.0096 2.33334 24.1334 3.32382 26.1143 4.65715C28.0572 3.32382 30.1429 2.33334 32.3715 1.68572C34.6 1.0381 36.8953 0.714294 39.2572 0.714294C41.0476 0.714294 42.8 0.895247 44.5143 1.25715C46.2286 1.61906 47.8857 2.18096 49.4857 2.94287C50.0191 3.20953 50.4286 3.58096 50.7143 4.05715C51 4.53334 51.1429 5.05715 51.1429 5.62858V32.0857C51.1429 33.1524 50.7143 33.9619 49.8572 34.5143C49 35.0667 48.1524 35.0762 47.3143 34.5429C46.0191 34.0095 44.7048 33.581 43.3715 33.2572C42.0381 32.9333 40.6667 32.7714 39.2572 32.7714C36.8572 32.7714 34.5524 33.1714 32.3429 33.9714C30.1334 34.7714 28.0572 35.8762 26.1143 37.2857Z" fill="#03AC0E"/>
</svg>
