<svg width="36" height="37" viewBox="0 0 36 37" fill="none" xmlns="http://www.w3.org/2000/svg">
<g clip-path="url(#clip0_101_52)">
<path d="M36 18.6073C36 18.5189 36 18.4185 35.996 18.3019C35.992 17.9765 35.9839 17.6109 35.9759 17.2211C35.9438 16.1001 35.8875 14.9832 35.7991 13.9305C35.6786 12.4801 35.5018 11.2707 35.2607 10.3626C35.0063 9.41503 34.5077 8.55079 33.8146 7.85629C33.1215 7.1618 32.2583 6.66138 31.3112 6.40506C30.1741 6.0997 27.9482 5.91086 24.8143 5.79434C23.3237 5.73809 21.7286 5.70193 20.1335 5.68184C19.575 5.67381 19.0567 5.66979 18.5906 5.66577H17.4094C16.9433 5.66979 16.425 5.67381 15.8665 5.68184C14.2714 5.70193 12.6763 5.73809 11.1857 5.79434C8.05179 5.91488 5.82187 6.10372 4.68884 6.40506C3.74143 6.66075 2.87787 7.16096 2.18469 7.85555C1.4915 8.55014 0.993054 9.41472 0.739286 10.3626C0.494196 11.2707 0.321429 12.4801 0.200893 13.9305C0.1125 14.9832 0.0562499 16.1001 0.0241071 17.2211C0.0120535 17.6109 0.00803565 17.9765 0.0040178 18.3019C0.0040178 18.4185 0 18.5189 0 18.6073V18.8323C0 18.9207 -6.13675e-08 19.0211 0.0040178 19.1376C0.00803565 19.4631 0.0160714 19.8287 0.0241071 20.2185C0.0562499 21.3394 0.1125 22.4564 0.200893 23.5091C0.321429 24.9595 0.498214 26.1689 0.739286 27.0769C1.25357 29.0015 2.76429 30.5202 4.68884 31.0345C5.82187 31.3399 8.05179 31.5287 11.1857 31.6452C12.6763 31.7015 14.2714 31.7376 15.8665 31.7577C16.425 31.7658 16.9433 31.7698 17.4094 31.7738H18.5906C19.0567 31.7698 19.575 31.7658 20.1335 31.7577C21.7286 31.7376 23.3237 31.7015 24.8143 31.6452C27.9482 31.5247 30.1781 31.3359 31.3112 31.0345C33.2357 30.5202 34.7464 29.0055 35.2607 27.0769C35.5058 26.1689 35.6786 24.9595 35.7991 23.5091C35.8875 22.4564 35.9438 21.3394 35.9759 20.2185C35.9879 19.8287 35.992 19.4631 35.996 19.1376C35.996 19.0211 36 18.9207 36 18.8323V18.6073ZM33.1071 18.8162C33.1071 18.9006 33.1071 18.993 33.1031 19.1015C33.0991 19.4149 33.0911 19.7604 33.083 20.1341C33.0549 21.2028 32.9987 22.2716 32.9143 23.264C32.8058 24.5577 32.6531 25.6185 32.4643 26.3296C32.2152 27.2577 31.4839 27.993 30.5598 28.2381C29.7161 28.4631 27.5906 28.6439 24.7018 28.7524C23.2393 28.8086 21.6643 28.8448 20.0933 28.8649C19.5429 28.8729 19.0326 28.8769 18.5746 28.8769H17.4254L15.9067 28.8649C14.3357 28.8448 12.7647 28.8086 11.2982 28.7524C8.40938 28.6399 6.27991 28.4631 5.44018 28.2381C4.51607 27.989 3.78482 27.2577 3.53571 26.3296C3.34687 25.6185 3.1942 24.5577 3.08571 23.264C3.00134 22.2716 2.94911 21.2028 2.91696 20.1341C2.90491 19.7604 2.90089 19.4109 2.89688 19.1015C2.89688 18.993 2.89286 18.8966 2.89286 18.8162V18.6234C2.89286 18.539 2.89286 18.4466 2.89688 18.3381C2.90089 18.0247 2.90893 17.6792 2.91696 17.3055C2.94509 16.2368 3.00134 15.168 3.08571 14.1756C3.1942 12.8818 3.34687 11.8211 3.53571 11.11C3.78482 10.1818 4.51607 9.44658 5.44018 9.20149C6.28393 8.97649 8.40938 8.79568 11.2982 8.6872C12.7607 8.63095 14.3357 8.59479 15.9067 8.5747C16.4571 8.56666 16.9674 8.56265 17.4254 8.56265H18.5746L20.0933 8.5747C21.6643 8.59479 23.2353 8.63095 24.7018 8.6872C27.5906 8.7997 29.7201 8.97649 30.5598 9.20149C31.4839 9.45059 32.2152 10.1818 32.4643 11.11C32.6531 11.8211 32.8058 12.8818 32.9143 14.1756C32.9987 15.168 33.0509 16.2368 33.083 17.3055C33.0951 17.6792 33.0991 18.0287 33.1031 18.3381C33.1031 18.4466 33.1071 18.543 33.1071 18.6234V18.8162ZM14.4241 24.1037L23.7455 18.6796L14.4241 13.3359V24.1037Z" fill="white"/>
</g>
<defs>
<clipPath id="clip0_101_52">
<rect width="36" height="36" fill="white" transform="translate(0 0.717529)"/>
</clipPath>
</defs>
</svg>
